<?xml version="1.0" encoding="UTF-8"?>
<svg id="Layer_1" xmlns="http://www.w3.org/2000/svg" version="1.1" viewBox="0 0 227.8 55.1">
  <!-- Generator: Adobe Illustrator 30.1.0, SVG Export Plug-In . SVG Version: 2.1.1 Build 136)  -->
  <defs>
    <style>
      .st0, .st1 {
        fill-rule: evenodd;
      }

      .st0, .st2 {
        fill: #fff;
      }

      .st3, .st1 {
        fill: #0c0ce5;
      }
    </style>
  </defs>
  <rect class="st3" x="-1.1" width="228.9" height="55.1"/>
  <path class="st0" d="M36.5,48.5c-2.5,0-4.4-2-4.4-4.4v-8.2c-2.9.9-6,.9-8.9,0v8.3c0,2.5-2,4.4-4.4,4.4s-4.4-2-4.4-4.4v-12.9c0-.7.6-1.3,1.3-1.3s1.3.6,1.3,1.3v12.9c0,1,.8,1.8,1.8,1.8s1.8-.8,1.8-1.8v-9.7c0-.7.6-1.3,1.3-1.3h0c1.3,0,2.7.8,5.8.8s4.5-.8,5.8-.8h0c.7,0,1.3.6,1.3,1.3v9.7c0,1,.8,1.8,1.8,1.8s1.8-.8,1.8-1.8v-12.9c0-.7.6-1.3,1.3-1.3s1.3.6,1.3,1.3v12.9c0,2.5-2,4.4-4.4,4.4h0Z"/>
  <path class="st0" d="M27.6,30.8c-12,0-13.3-6.7-13.3-9.3v-8.4c0-2.5,2-4.4,4.4-4.4s4.4,2,4.4,4.4h0v8.9c0,.7-.6,1.3-1.4,1.3-.7,0-1.3-.6-1.3-1.3h0v-4.8s0-4.1,0-4.1c0-1-.8-1.8-1.8-1.8-1,0-1.8.8-1.8,1.8h0v4.5s0,2.7,0,4c0,2.7,2.7,6.7,10.7,6.7s10.7-4,10.7-6.7,0,0,0,0v-8.4c0-1-.8-1.8-1.8-1.8s-1.8.8-1.8,1.8v8.9c0,.7-.6,1.3-1.3,1.3s-1.3-.6-1.3-1.3h0v-8.9c0-2.5,2-4.4,4.4-4.4s4.4,2,4.4,4.4h0v8.4c0,2.7-1.3,9.3-13.3,9.3h0Z"/>
  <path class="st0" d="M226,32.2v.2h0c0,0,0,.1,0,.2,0,0,0,0,0,0,0,0,0,0,0,.1,0,0,0,0,0,0,0,0,0,.1,0,.2h0c0,.3,0,.5-.1.7h-11.6c.5,1.8,2.2,2.9,4,2.8,1.5.1,3-.3,4.2-1.2l2.3,2.1c-1.7,1.8-4,2.8-6.5,2.7-4.3,0-7.8-3.5-7.8-7.8,0-4.3,3.5-7.8,7.8-7.8,3.7,0,6.9,2.6,7.6,6.3h0s0,.3,0,.7c0,.2,0,.4,0,.7v.2h0Z"/>
  <path class="st1" d="M218.3,27.8c-1.8,0-3.4,1.1-4,2.8h8c-.6-1.7-2.2-2.8-4-2.8h0Z"/>
  <path class="st0" d="M204.1,37.6v-6.2h0c0-2.7-2.1-3.6-3.9-3.6s-3.8.8-3.8,3.5h0v8.5h-3.5v-16h3.5v1.9c1-1,2.4-1.5,3.8-1.5,5,0,7.4,3.2,7.4,7h0v8.5h-3.5v-2.3Z"/>
  <path class="st0" d="M187.7,23.9c-1,0-1.8-.8-1.8-1.8s.8-1.8,1.8-1.8c1,0,1.8.8,1.8,1.8h0c0,1-.8,1.8-1.8,1.8Z"/>
  <rect class="st2" x="179.1" y="14.5" width="3.5" height="25.4"/>
  <path class="st0" d="M172.3,37.6v-6.2h0c0-2.7-2.1-3.6-3.9-3.6s-3.8.8-3.8,3.5h0v8.5h-3.5v-16h3.5v1.9c1-1,2.4-1.5,3.8-1.5,5,0,7.4,3.2,7.4,7h0v8.5h-3.5v-2.3Z"/>
  <path class="st0" d="M150.4,39.9c-4.3,0-7.8-3.5-7.8-7.8,0-4.3,3.5-7.8,7.8-7.8,4.3,0,7.8,3.5,7.8,7.8h0c0,4.3-3.5,7.8-7.8,7.8h0Z"/>
  <path class="st1" d="M150.4,28.1c-2.2,0-4,1.8-4,4s1.8,4,4,4c2.2,0,4-1.8,4-4,0-2.2-1.8-4-4-4h0Z"/>
  <polygon class="st0" points="131.7 47 133.8 40.4 126.7 24.6 130.4 24.6 135.4 35.5 138.9 24.6 142.6 24.6 135.2 47 131.7 47"/>
  <path class="st0" d="M119.2,39.9c-1.7,0-3.3-.6-4.6-1.7v8.8h-3.2v-22.4h3.2v1.5c1.3-1.1,2.9-1.7,4.6-1.7,4.3.2,7.6,3.9,7.4,8.2-.2,4-3.4,7.2-7.4,7.4h0Z"/>
  <path class="st1" d="M119.2,28.2c-2.2,0-4,1.8-4,4s1.8,4,4,4c2.2,0,4-1.8,4-4h0c0-2.2-1.8-4-4-4h0Z"/>
  <path class="st0" d="M101.2,39.9c-1.7,0-3.3-.6-4.6-1.7v8.8h-3.2v-22.4h3.2v1.5c1.3-1.1,2.9-1.7,4.6-1.7,4.3.2,7.6,3.9,7.4,8.2-.2,4-3.4,7.2-7.4,7.4h0Z"/>
  <path class="st1" d="M101.2,28.2c-2.2,0-4,1.8-4,4s1.8,4,4,4,4-1.8,4-4h0c0-2.2-1.8-4-4-4Z"/>
  <path class="st0" d="M87.4,38.3c-1.3,1.1-2.9,1.7-4.6,1.7-4.3-.2-7.6-3.9-7.4-8.2.2-4,3.4-7.2,7.4-7.4,1.7,0,3.3.6,4.6,1.7v-1.5h2.9v15.4h-2.9v-1.7Z"/>
  <path class="st1" d="M82.8,28.2c-2.2,0-4,1.8-4,4s1.8,4,4,4,4-1.8,4-4h0c0-2.2-1.8-4-4-4h0Z"/>
  <path class="st0" d="M68.9,37.6v-6.2h0c0-2.7-2.1-3.6-3.9-3.6s-3.8.8-3.8,3.5h0v8.5h-3.5V14.5h3.5v11.4c1-1,2.4-1.5,3.8-1.5,5,0,7.4,3.2,7.4,7h0v8.5h-3.5v-2.3Z"/>
  <rect class="st2" x="185.9" y="25.8" width="3.5" height="14.2"/>
</svg>