<?xml version="1.0" encoding="UTF-8"?>
<svg id="Layer_1" xmlns="http://www.w3.org/2000/svg" version="1.1" viewBox="0 0 54 55.1">
  <!-- Generator: Adobe Illustrator 30.1.0, SVG Export Plug-In . SVG Version: 2.1.1 Build 136)  -->
  <defs>
    <style>
      .st0 {
        fill: #fff;
        fill-rule: evenodd;
      }

      .st1 {
        fill: #0c0ce5;
      }
    </style>
  </defs>
  <rect class="st1" x="-1.1" width="55.1" height="55.1"/>
  <path class="st0" d="M36.5,48.5c-2.5,0-4.4-2-4.4-4.4v-8.2c-2.9.9-6,.9-8.9,0v8.3c0,2.5-2,4.4-4.4,4.4s-4.4-2-4.4-4.4v-12.9c0-.7.6-1.3,1.3-1.3s1.3.6,1.3,1.3v12.9c0,1,.8,1.8,1.8,1.8s1.8-.8,1.8-1.8v-9.7c0-.7.6-1.3,1.3-1.3h0c1.3,0,2.7.8,5.8.8s4.5-.8,5.8-.8h0c.7,0,1.3.6,1.3,1.3v9.7c0,1,.8,1.8,1.8,1.8s1.8-.8,1.8-1.8v-12.9c0-.7.6-1.3,1.3-1.3s1.3.6,1.3,1.3v12.9c0,2.5-2,4.4-4.4,4.4h0Z"/>
  <path class="st0" d="M27.6,30.8c-12,0-13.3-6.7-13.3-9.3v-8.4c0-2.5,2-4.4,4.4-4.4s4.4,2,4.4,4.4h0v8.9c0,.7-.6,1.3-1.4,1.3-.7,0-1.3-.6-1.3-1.3h0v-4.8s0-4.1,0-4.1c0-1-.8-1.8-1.8-1.8-1,0-1.8.8-1.8,1.8h0v4.5s0,2.7,0,4c0,2.7,2.7,6.7,10.7,6.7s10.7-4,10.7-6.7,0,0,0,0v-8.4c0-1-.8-1.8-1.8-1.8s-1.8.8-1.8,1.8v8.9c0,.7-.6,1.3-1.3,1.3s-1.3-.6-1.3-1.3h0v-8.9c0-2.5,2-4.4,4.4-4.4s4.4,2,4.4,4.4h0v8.4c0,2.7-1.3,9.3-13.3,9.3h0Z"/>
</svg>