<?xml version="1.0" encoding="UTF-8"?>
<svg id="Layer_1" xmlns="http://www.w3.org/2000/svg" version="1.1" viewBox="0 0 152.4 51.6">
  <!-- Generator: Adobe Illustrator 30.3.0, SVG Export Plug-In . SVG Version: 2.1.3 Build 182)  -->
  <defs>
    <style>
      .st0, .st1 {
        isolation: isolate;
      }

      .st2, .st1 {
        fill: #fff;
      }

      .st1 {
        font-family: GROUPE-REGULAR, GROUPE;
        font-size: 19px;
      }
    </style>
  </defs>
  <path class="st2" d="M40.2,26.6c0-1.2-.6-2.3-1.4-3,0-.4.2-.9.2-1.4,0-2.8-2.2-5.1-5-5.2,0-1.5-1.2-2.7-2.6-3.1-.3-1.6-1.5-2.8-3-3.1h0c0-.5.4-.9.8-.9h4.2c.5,0,.8-.4.8-.8s-.4-.8-.8-.8h-4.2c-1.4,0-2.5,1.1-2.5,2.5h0c-1,.3-1.9.9-2.5,1.7-.6-.8-1.5-1.4-2.5-1.6h0c0-1.5-1.1-2.6-2.5-2.6h-11c-.3-1-1.3-1.7-2.3-1.7s-2.5,1.1-2.5,2.5,1.1,2.5,2.5,2.5,2-.7,2.3-1.7h11c.4,0,.8.4.8.8h0c-1.5.4-2.7,1.7-3,3.2-1.4.3-2.5,1.6-2.6,3.1-2.8,0-5,2.4-5,5.2s0,.9.2,1.4c-.9.7-1.4,1.8-1.4,3s.6,2.3,1.4,3c-.1.4-.2.9-.2,1.4,0,2.8,2.3,5.1,5,5.2,0,1.5,1.1,2.7,2.6,3.1.3,1.6,1.5,2.8,3,3.1h0c0,.5-.4.9-.8.9h-11c-.3-1-1.3-1.7-2.3-1.7s-2.5,1.1-2.5,2.5,1.1,2.5,2.5,2.5,2-.7,2.3-1.7h11c1.4,0,2.5-1.1,2.5-2.5h0c1-.3,1.9-.9,2.5-1.7.6.8,1.5,1.4,2.5,1.6h0c0,1.5,1.1,2.6,2.5,2.6h2.5c.5,0,.8-.4.8-.8s-.4-.8-.8-.8h-2.5c-.4,0-.8-.4-.8-.8h0c1.5-.4,2.7-1.7,3-3.2,1.4-.3,2.5-1.6,2.6-3.1,2.8,0,5-2.4,5-5.2s0-.9-.2-1.4c.9-.7,1.4-1.8,1.4-3ZM6.9,9.7c-.4,0-.8-.4-.8-.8s.4-.8.8-.8.8.4.8.8-.4.8-.8.8ZM6.9,44.1c-.4,0-.8-.4-.8-.8s.4-.8.8-.8.8.4.8.8-.4.8-.8.8ZM23.3,37.9c0,1.3-1,2.3-2.3,2.3s-1.9-.7-2.2-1.7c.6-.2,1.1-.5,1.5-1,.3-.3.2-.8,0-1.1-.3-.3-.8-.3-1.1,0-.3.4-.8.6-1.2.6-.9,0-1.7-.8-1.7-1.7s.3-1.2.9-1.5c.4-.2.5-.7.3-1.1-.2-.4-.7-.5-1.1-.3-.6.3-1.1.8-1.4,1.5h0c-2,0-3.7-1.5-3.7-3.5s0-.4,0-.6c.3,0,.7.2,1,.2s.8-.4.8-.8-.4-.8-.8-.8-.9-.1-1.2-.4c-.6-.4-1.1-1.1-1.1-1.9,0-1.2,1.1-2.3,2.3-2.3s.8-.4.8-.8-.4-.8-.8-.8-.7,0-1,.2v-.6c0-2,1.6-3.5,3.5-3.5s.4,0,.6,0c.3,0,.5,0,.7-.2.2-.2.2-.5.2-.7v-.5c0-.7.4-1.3,1-1.5.2.9.7,1.6,1.4,2.2.3.3.8.2,1.1-.1.3-.4.2-.8-.2-1.1-.6-.4-.9-1.1-.9-1.9,0-1.3,1-2.3,2.3-2.3s2.3,1,2.3,2.3v23.5h0ZM37.2,28.1c-.4.2-.8.4-1.2.4s-.8.4-.8.8.4.8.8.8.7,0,1-.2v.6c0,2-1.7,3.6-3.7,3.5h0c-.3-.6-.8-1.1-1.4-1.5-.4-.2-.9,0-1.1.3-.2.4,0,.9.3,1.1.6.3.9.9.9,1.5,0,.9-.8,1.7-1.7,1.7s-.9-.2-1.2-.6c-.3-.3-.8-.4-1.1,0-.3.3-.4.8,0,1.1.4.5,1,.8,1.5,1-.3,1-1.2,1.7-2.2,1.7s-2.3-1-2.3-2.3V14.4c0-1.3,1-2.3,2.3-2.3s2.3,1,2.3,2.3-.3,1.4-.9,1.9c-.3.3-.4.7-.2,1.1.3.3.7.4,1.1.1.7-.5,1.2-1.3,1.4-2.2.6.3,1,.9,1,1.5s0,.3,0,.5c0,.3,0,.5.2.7.2.2.5.3.7.2h.6c2,0,3.5,1.6,3.5,3.5s0,.4,0,.6c-.3,0-.7-.2-1-.2s-.8.4-.8.8.4.8.8.8c1.3,0,2.3,1.1,2.3,2.3s-.4,1.5-1.1,1.9v.2Z"/>
  <path class="st2" d="M35.6,10h3.5c.3,1,1.3,1.7,2.3,1.7s2.5-1.1,2.5-2.5-1.1-2.5-2.5-2.5-2,.7-2.3,1.7h-3.5c-.5,0-.8.4-.8.8s.4.8.8.8ZM41.3,8.2c.4,0,.8.4.8.8s-.3.8-.8.8-.8-.4-.8-.8.3-.8.8-.8Z"/>
  <path class="st2" d="M41.5,41.6c-1.1,0-2,.7-2.3,1.7h-5.1c-.5,0-.8.4-.8.8s.4.8.8.8h5.1c.3,1,1.3,1.7,2.3,1.7s2.5-1.1,2.5-2.5-1.1-2.5-2.5-2.5ZM41.3,44.1c-.4,0-.8-.4-.8-.8s.3-.8.8-.8.8.4.8.8-.3.8-.8.8Z"/>
  <g class="st0">
    <text class="st1" transform="translate(50.9 22.1)"><tspan x="0" y="0">Smart</tspan><tspan x="0" y="22.8">PROCESS</tspan></text>
  </g>
</svg>